# xmcd
#
# Track frame offsets: 
#        150
#        13486
#        25642
#        39148
#        54385
#        65588
#        79350
#        89794
#        102488
#        115182
#        126075
#        139125
#        151425
#        163669
#        171282
#        184378
#        196782
#        208988
#        217932
#        234394
#
# Disc length: 3309 seconds
#
# Revision: 1
# Processed by: cddbd v1.5.2PL0 Copyright (c) Steve Scherf et al.
# Submitted via: ExactAudioCopy v0.99pb5
#
DISCID=200ceb14
DTITLE=Various Artist - Totally Essential Bluegrass - CD1
DYEAR=1900
DGENRE=Bluegrass
TTITLE0=The Stanley Brothers - I am a man of constant sorrow
TTITLE1=Baily Brothers - John Henry
TTITLE2=Flatt and Scruggs - Earls breakdown
TTITLE3=Bill Monroe - The Pines
TTITLE4=Reno and Smiley - There's another baby waiting for me down the l
TTITLE4=ine
TTITLE5=Uncle Dave Macon - Hold the woodpile down
TTITLE6=Bill Monroe - Bluegrass  breakdown
TTITLE7=Delmore Brothers - Going back to the Blueridge Mountains
TTITLE8=Gid Tanner and his skillet lickers - Hawkins rag
TTITLE9=The Stanley Brothers - Molly and Tenbrooks
TTITLE10=Flatt and scruggs - Dim light and thick smoke
TTITLE11=Bill Monroe - Mule skinner blues
TTITLE12=Blue Sky Boys - Are you from Dixie
TTITLE13=Reno and Smiley - Tennessee cut-up breakdown
TTITLE14=The Stanley Brothers - The little glass of wine
TTITLE15=Bailey Brothers - Beautiful brown eyes
TTITLE16=Bill Monroe - Blue yodel no 4
TTITLE17=Bill Carlisle - Footprints in the snow
TTITLE18=Flatt and Scruggs - Foggy mountain special
TTITLE19=Ernest V Stoneman - Sally Goodin
EXTD=
EXTT0=
EXTT1=
EXTT2=
EXTT3=
EXTT4=
EXTT5=
EXTT6=
EXTT7=
EXTT8=
EXTT9=
EXTT10=
EXTT11=
EXTT12=
EXTT13=
EXTT14=
EXTT15=
EXTT16=
EXTT17=
EXTT18=
EXTT19=
PLAYORDER=
